<svg width="24" height="24" viewBox="0 0 24 24" fill="none" xmlns="http://www.w3.org/2000/svg">
<g clip-path="url(#clip0)">
<path d="M7.77137 6.26056C7.72281 6.24341 7.67345 6.22564 7.62399 6.20741V5.2107C7.86521 5.2498 8.04456 5.33562 8.05018 5.3383C8.22357 5.42431 8.43395 5.35414 8.52076 5.18108C8.60781 5.0075 8.53773 4.79623 8.36415 4.70919C8.34461 4.69944 8.03706 4.54817 7.62399 4.50242V4.37698C7.62399 4.18278 7.46659 4.02542 7.27243 4.02542C7.07827 4.02542 6.92087 4.18278 6.92087 4.37698V4.55141C6.90868 4.55478 6.89645 4.55787 6.88426 4.56158C6.49421 4.67909 6.20297 5.01176 6.12422 5.4297C6.05176 5.81422 6.17724 6.18683 6.45174 6.40212C6.57484 6.49873 6.72399 6.58733 6.92087 6.67878V7.96873C6.79857 7.94572 6.69784 7.89706 6.54587 7.79773C6.38335 7.69133 6.16547 7.73694 6.05921 7.8995C5.95294 8.06202 5.99851 8.27989 6.16097 8.38616C6.44907 8.57459 6.66109 8.65025 6.92082 8.67739V8.84731C6.92082 9.04152 7.07823 9.19887 7.27238 9.19887C7.46654 9.19887 7.62395 9.04152 7.62395 8.84731V8.64322C8.15387 8.49776 8.49339 8.04055 8.56923 7.58937C8.66861 6.99833 8.34798 6.46433 7.77137 6.26056V6.26056ZM6.88571 5.84881C6.81957 5.79697 6.79191 5.68353 6.81521 5.55987C6.82876 5.48792 6.86321 5.40777 6.92091 5.34284V5.87497C6.90877 5.8663 6.89691 5.85758 6.88571 5.84881ZM7.8759 7.47266C7.85096 7.62092 7.7656 7.77598 7.62404 7.87677V6.96148C7.90192 7.10431 7.89456 7.36147 7.8759 7.47266Z" fill="#FB8965"/>
<path d="M17.161 4.95734C17.3552 4.95734 17.5125 4.79998 17.5125 4.60577C17.5125 4.41157 17.3552 4.25421 17.161 4.25421H13.0638C12.8696 4.25421 12.7123 4.41157 12.7123 4.60577C12.7123 4.79998 12.8696 4.95734 13.0638 4.95734H17.161Z" fill="#828282"/>
<path d="M11.306 6.32153C11.306 6.51573 11.4634 6.67309 11.6576 6.67309H17.161C17.3552 6.67309 17.5125 6.51573 17.5125 6.32153C17.5125 6.12733 17.3552 5.96997 17.161 5.96997H11.6576C11.4634 5.96997 11.306 6.12733 11.306 6.32153Z" fill="#828282"/>
<path d="M11.6576 8.38849H17.161C17.3552 8.38849 17.5125 8.23113 17.5125 8.03693C17.5125 7.84272 17.3552 7.68536 17.161 7.68536H11.6576C11.4634 7.68536 11.306 7.84272 11.306 8.03693C11.306 8.23113 11.4634 8.38849 11.6576 8.38849Z" fill="#828282"/>
<path d="M6.29209 15.1941C5.95614 15.1941 5.68286 15.4673 5.68286 15.8032V19.1624C5.68286 19.4983 5.95614 19.7715 6.29209 19.7715H8.48368C8.81959 19.7715 9.09287 19.4983 9.09287 19.1624V15.8032C9.09287 15.4673 8.81959 15.1941 8.48368 15.1941H6.29209ZM8.38979 19.0684H6.38603V15.8972H8.38979V19.0684Z" fill="#FB8965"/>
<path d="M10.295 14.8657V19.1624C10.295 19.4983 10.5683 19.7715 10.9042 19.7715H13.0959C13.4318 19.7715 13.7051 19.4983 13.7051 19.1624V14.8657C13.7051 14.5298 13.4318 14.2566 13.0959 14.2566H10.9042C10.5684 14.2566 10.295 14.5298 10.295 14.8657ZM10.9982 14.9597H13.0019V19.0684H10.9982V14.9597Z" fill="#FB8965"/>
<path d="M23.2162 14.3868C23.238 14.3077 23.2506 14.2247 23.2506 14.1387V13.4685C23.2506 13.0355 22.9551 12.6712 22.5555 12.564C22.5808 12.4792 22.5948 12.3896 22.5948 12.2968V11.6265C22.5948 11.5337 22.5808 11.4441 22.5555 11.3593C22.9551 11.2521 23.2506 10.8877 23.2506 10.4547V9.78456C23.2506 9.26767 22.83 8.84711 22.3131 8.84711H20.1471V2.80924C20.1471 2.40644 19.8194 2.07874 19.4166 2.07874H9.64111C9.44695 2.07874 9.28955 2.23609 9.28955 2.4303C9.28955 2.6245 9.44695 2.78186 9.64111 2.78186H19.4166C19.4317 2.78186 19.444 2.79414 19.444 2.80924V21.1906C19.444 21.2057 19.4317 21.2179 19.4166 21.2179H4.58344C4.56834 21.2179 4.55606 21.2057 4.55606 21.1906C4.55606 19.1888 4.55606 4.89034 4.55606 2.80924C4.55606 2.79414 4.56834 2.78186 4.58344 2.78186H8.23547C8.42963 2.78186 8.58703 2.6245 8.58703 2.4303C8.58703 2.23609 8.42963 2.07874 8.23547 2.07874H4.58344C4.18064 2.07874 3.85294 2.40644 3.85294 2.80924V10.6891H1.68689C1.17 10.6891 0.749437 11.1097 0.749437 11.6266V12.2968C0.749437 12.3828 0.762047 12.4657 0.783797 12.5448C0.339891 12.6184 0 13.004 0 13.4685V14.1387C0 14.6032 0.339891 14.9888 0.783797 15.0625C0.762 15.1416 0.749437 15.2246 0.749437 15.3106V15.9808C0.749437 16.0668 0.762047 16.1497 0.783797 16.2288C0.339891 16.3024 0 16.688 0 17.1525V17.8227C0 18.0444 0.0777187 18.2479 0.206766 18.4086C0.0777187 18.5693 0 18.7728 0 18.9945V19.6647C0 20.1816 0.420516 20.6022 0.937453 20.6022H1.49944C1.69359 20.6022 1.851 20.4448 1.851 20.2506C1.851 20.0564 1.69359 19.8991 1.49944 19.8991H0.937453C0.808266 19.8991 0.703125 19.7939 0.703125 19.6647V18.9945C0.703125 18.8652 0.808219 18.7601 0.937453 18.7601H3.85294V19.8991H2.90513C2.71097 19.8991 2.55356 20.0564 2.55356 20.2506C2.55356 20.4448 2.71097 20.6022 2.90513 20.6022H3.85294V21.1906C3.85294 21.5934 4.18064 21.9211 4.58344 21.9211H19.4166C19.8194 21.9211 20.1471 21.5934 20.1471 21.1906V20.6022H22.3131C22.83 20.6022 23.2506 20.1816 23.2506 19.6647V18.9945C23.2506 18.7728 23.1728 18.5693 23.0438 18.4086C23.1728 18.2479 23.2506 18.0443 23.2506 17.8227V17.1524C23.2506 17.0665 23.238 16.9835 23.2162 16.9044C23.6601 16.8307 24 16.4451 24 15.9806V15.3104C24 14.8461 23.6601 14.4604 23.2162 14.3868V14.3868ZM1.45256 15.9807V15.3105C1.45256 15.1813 1.5577 15.0762 1.68689 15.0762H3.85289V16.2151H1.68689C1.55766 16.2151 1.45256 16.11 1.45256 15.9807V15.9807ZM1.45256 11.6265C1.45256 11.4973 1.5577 11.3922 1.68689 11.3922H3.85289V12.5311H1.68689C1.5577 12.5311 1.45256 12.426 1.45256 12.2968V11.6265ZM0.703125 14.1387V13.4685C0.703125 13.3393 0.808219 13.2342 0.937453 13.2342H1.68689H3.85289V14.3731C3.15061 14.3731 1.63139 14.3731 0.937406 14.3731C0.808219 14.3731 0.703125 14.268 0.703125 14.1387V14.1387ZM0.937453 18.057C0.808266 18.057 0.703125 17.9519 0.703125 17.8227V17.1525C0.703125 17.0233 0.808219 16.9182 0.937453 16.9182H3.85294V18.057H0.937453ZM22.5474 17.1525V17.8227C22.5474 17.9519 22.4423 18.057 22.3131 18.057H20.1471V16.9182H22.3131C22.4423 16.9182 22.5474 17.0233 22.5474 17.1525V17.1525ZM21.8917 11.6265V12.2968C21.8917 12.426 21.7866 12.5311 21.6574 12.5311H20.1471V11.3922H21.6574C21.7866 11.3922 21.8917 11.4974 21.8917 11.6265V11.6265ZM20.1471 13.2342H22.3131C22.4423 13.2342 22.5474 13.3393 22.5474 13.4685V14.1387C22.5474 14.268 22.4423 14.3731 22.3131 14.3731H20.1471V13.2342ZM22.3131 9.55019C22.4423 9.55019 22.5474 9.65528 22.5474 9.78452V10.4547C22.5474 10.584 22.4423 10.6891 22.3131 10.6891C21.9496 10.6891 20.7043 10.6891 20.1471 10.6891V9.55019H22.3131ZM22.5474 19.6647C22.5474 19.7939 22.4423 19.8991 22.3131 19.8991H20.1471V18.7601H22.3131C22.4423 18.7601 22.5474 18.8652 22.5474 18.9945V19.6647ZM23.2969 15.9807C23.2969 16.11 23.1918 16.2151 23.0625 16.2151C22.3714 16.2151 20.8507 16.2151 20.1471 16.2151V15.0762H23.0625C23.1918 15.0762 23.2969 15.1813 23.2969 15.3105V15.9807Z" fill="#828282"/>
<path d="M17.9653 16.6628C18.1595 16.6628 18.3169 16.5054 18.3169 16.3112V12.9907C18.3169 12.6548 18.0436 12.3816 17.7077 12.3816H15.516C15.1801 12.3816 14.9069 12.6548 14.9069 12.9907V19.1624C14.9069 19.4983 15.1801 19.7715 15.516 19.7715H17.7077C18.0436 19.7715 18.3169 19.4983 18.3169 19.1624V17.7169C18.3169 17.5227 18.1595 17.3653 17.9653 17.3653C17.7711 17.3653 17.6138 17.5227 17.6138 17.7169V19.0684H15.61V13.0847H17.6138V16.3112C17.6138 16.5054 17.7712 16.6628 17.9653 16.6628Z" fill="#FB8965"/>
</g>
<defs>
<clipPath id="clip0">
<rect width="24" height="24" fill="white"/>
</clipPath>
</defs>
</svg>
