<svg width="32" height="32" viewBox="0 0 32 32" fill="none" xmlns="http://www.w3.org/2000/svg">
<path d="M24.2979 27.6907L23.613 24.7357L25.3241 18.3497C26.3819 14.4021 24.6256 10.3519 21.2905 8.33742L22.1446 5.14975C22.5003 3.82263 21.7099 2.45367 20.3828 2.09807C19.0557 1.74247 17.6868 2.53286 17.3311 3.85999L16.477 7.04772C12.5815 7.12482 9.03538 9.75417 7.97761 13.7018L6.26651 20.0877L4.19591 22.3044C3.79716 22.7313 3.65512 23.3214 3.81585 23.883C3.97667 24.4445 4.40947 24.8701 4.97372 25.0213L10.4434 26.4869C10.0887 28.1833 11.1208 29.8867 12.8152 30.3407C14.5095 30.7947 16.2551 29.8356 16.7962 28.1891L22.2659 29.6547C22.8301 29.8059 23.4177 29.6538 23.8378 29.2479C24.2577 28.8418 24.4297 28.2598 24.2979 27.6907ZM18.6046 4.20121C18.7721 3.57623 19.4167 3.20408 20.0415 3.37151C20.6664 3.53895 21.0385 4.18353 20.8711 4.80851L20.0882 7.7303C19.7302 7.58224 19.3588 7.45551 18.9748 7.35263C18.5907 7.24971 18.2057 7.17381 17.8217 7.123L18.6046 4.20121V4.20121ZM9.25114 14.043C10.3444 9.96279 14.5534 7.53269 18.6337 8.62599C22.7139 9.71929 25.1439 13.9283 24.0506 18.0085L22.4807 23.8676L7.6812 19.9021L9.25114 14.043ZM13.1564 29.0673C12.1646 28.8015 11.5513 27.8218 11.7203 26.829L15.5194 27.847C15.1693 28.7912 14.1482 29.333 13.1564 29.0673ZM22.9215 28.2998C22.8811 28.3388 22.7698 28.4248 22.6071 28.3812L5.31494 23.7478C5.15232 23.7042 5.09881 23.5741 5.08341 23.5201C5.06793 23.4662 5.04446 23.3275 5.15944 23.2044L7.11172 21.1144L22.3679 25.2022L23.0136 27.9884C23.0515 28.1524 22.9617 28.2608 22.9215 28.2998Z" fill="#828282"/>
</svg>
