<svg width="24" height="24" viewBox="0 0 24 24" fill="none" xmlns="http://www.w3.org/2000/svg">
<path d="M23.6478 7.10227L20.6478 4.10227C20.5692 4.0236 20.4689 3.97004 20.3598 3.94833C20.2507 3.92663 20.1376 3.93777 20.0348 3.98034C19.9321 4.02291 19.8442 4.09501 19.7824 4.18751C19.7206 4.28 19.6876 4.38875 19.6876 4.5V5.4375H18.5626V2.25C18.562 1.70318 18.3445 1.17893 17.9578 0.792264C17.5712 0.405602 17.0469 0.188108 16.5001 0.1875H7.5001C6.95327 0.188108 6.42902 0.405602 6.04236 0.792264C5.6557 1.17893 5.4382 1.70318 5.4376 2.25V14.4375H4.3126V13.5C4.31259 13.3888 4.2796 13.28 4.21779 13.1875C4.15598 13.095 4.06813 13.0229 3.96535 12.9803C3.86257 12.9378 3.74948 12.9266 3.64036 12.9483C3.53125 12.97 3.43103 13.0236 3.35236 13.1023L0.352361 16.1023C0.24688 16.2078 0.187622 16.3508 0.187622 16.5C0.187622 16.6492 0.24688 16.7922 0.352361 16.8977L3.35236 19.8977C3.68639 20.2534 4.3283 19.9856 4.3126 19.5V18.5625H5.4376V21.75C5.4382 22.2968 5.6557 22.8211 6.04236 23.2077C6.42902 23.5944 6.95327 23.8119 7.5001 23.8125H16.5001C17.0469 23.8119 17.5712 23.5944 17.9578 23.2077C18.3445 22.8211 18.562 22.2968 18.5626 21.75V9.5625H19.6876V10.5C19.6719 10.9858 20.3138 11.2533 20.6478 10.8977L23.6478 7.89773C23.7533 7.79225 23.8126 7.64918 23.8126 7.5C23.8126 7.35082 23.7533 7.20775 23.6478 7.10227V7.10227ZM7.5001 1.3125H16.5001C16.7486 1.31279 16.9869 1.41165 17.1627 1.5874C17.3384 1.76316 17.4373 2.00145 17.4376 2.25V3.1875H6.5626V2.25C6.56288 2.00145 6.66174 1.76316 6.8375 1.5874C7.01325 1.41165 7.25154 1.31279 7.5001 1.3125V1.3125ZM16.5001 22.6875H7.5001C7.25154 22.6872 7.01325 22.5884 6.8375 22.4126C6.66174 22.2368 6.56288 21.9986 6.5626 21.75V20.8125H17.4376V21.75C17.4373 21.9986 17.3384 22.2368 17.1627 22.4126C16.9869 22.5884 16.7486 22.6872 16.5001 22.6875V22.6875ZM20.8126 9.14198V9C20.8126 8.85082 20.7533 8.70774 20.6478 8.60225C20.5424 8.49676 20.3993 8.4375 20.2501 8.4375H15.7501C15.6009 8.4375 15.4578 8.49676 15.3523 8.60225C15.2469 8.70774 15.1876 8.85082 15.1876 9C15.1876 9.14918 15.2469 9.29226 15.3523 9.39775C15.4578 9.50324 15.6009 9.5625 15.7501 9.5625H17.4376V19.6875H6.5626V18.5625H8.2501C8.39928 18.5625 8.54235 18.5032 8.64784 18.3977C8.75333 18.2923 8.8126 18.1492 8.8126 18C8.8126 17.8508 8.75333 17.7077 8.64784 17.6023C8.54235 17.4968 8.39928 17.4375 8.2501 17.4375H3.7501C3.60091 17.4375 3.45784 17.4968 3.35235 17.6023C3.24686 17.7077 3.1876 17.8508 3.1876 18V18.142L1.54561 16.5L3.1876 14.858V15C3.1876 15.1492 3.24686 15.2923 3.35235 15.3977C3.45784 15.5032 3.60091 15.5625 3.7501 15.5625H8.2501C8.39928 15.5625 8.54235 15.5032 8.64784 15.3977C8.75333 15.2923 8.8126 15.1492 8.8126 15C8.8126 14.8508 8.75333 14.7077 8.64784 14.6023C8.54235 14.4968 8.39928 14.4375 8.2501 14.4375H6.5626V4.3125H17.4376V5.4375H15.7501C15.6009 5.4375 15.4578 5.49676 15.3523 5.60225C15.2469 5.70774 15.1876 5.85082 15.1876 6C15.1876 6.14918 15.2469 6.29226 15.3523 6.39775C15.4578 6.50324 15.6009 6.5625 15.7501 6.5625H20.2501C20.3993 6.5625 20.5424 6.50324 20.6478 6.39775C20.7533 6.29226 20.8126 6.14918 20.8126 6V5.85802L22.4546 7.5L20.8126 9.14198Z" fill="#828282"/>
<path d="M11.25 9.5625H13.125C13.2741 9.56266 13.4171 9.62198 13.5226 9.72743C13.628 9.83289 13.6873 9.97587 13.6875 10.125C13.6875 10.2742 13.7468 10.4173 13.8523 10.5227C13.9577 10.6282 14.1008 10.6875 14.25 10.6875C14.3992 10.6875 14.5423 10.6282 14.6477 10.5227C14.7532 10.4173 14.8125 10.2742 14.8125 10.125C14.812 9.6776 14.6341 9.24867 14.3177 8.93231C14.0013 8.61595 13.5724 8.438 13.125 8.4375H12.5625V7.5C12.5625 7.35082 12.5032 7.20774 12.3977 7.10225C12.2923 6.99676 12.1492 6.9375 12 6.9375C11.8508 6.9375 11.7077 6.99676 11.6023 7.10225C11.4968 7.20774 11.4375 7.35082 11.4375 7.5V8.4375H11.25C10.703 8.4375 10.1784 8.6548 9.79159 9.04159C9.4048 9.42839 9.1875 9.95299 9.1875 10.5C9.1875 11.047 9.4048 11.5716 9.79159 11.9584C10.1784 12.3452 10.703 12.5625 11.25 12.5625H12.75C12.9986 12.5625 13.2371 12.6613 13.4129 12.8371C13.5887 13.0129 13.6875 13.2514 13.6875 13.5C13.6875 13.7486 13.5887 13.9871 13.4129 14.1629C13.2371 14.3387 12.9986 14.4375 12.75 14.4375H10.875C10.7259 14.4373 10.5829 14.378 10.4774 14.2726C10.372 14.1671 10.3127 14.0241 10.3125 13.875C10.3125 13.7258 10.2532 13.5827 10.1477 13.4773C10.0423 13.3718 9.89918 13.3125 9.75 13.3125C9.60082 13.3125 9.45774 13.3718 9.35225 13.4773C9.24676 13.5827 9.1875 13.7258 9.1875 13.875C9.188 14.3224 9.36595 14.7513 9.68231 15.0677C9.99867 15.3841 10.4276 15.562 10.875 15.5625H11.4375V16.5C11.4375 16.6492 11.4968 16.7923 11.6023 16.8977C11.7077 17.0032 11.8508 17.0625 12 17.0625C12.1492 17.0625 12.2923 17.0032 12.3977 16.8977C12.5032 16.7923 12.5625 16.6492 12.5625 16.5V15.5625H12.75C13.297 15.5625 13.8216 15.3452 14.2084 14.9584C14.5952 14.5716 14.8125 14.047 14.8125 13.5C14.8125 12.953 14.5952 12.4284 14.2084 12.0416C13.8216 11.6548 13.297 11.4375 12.75 11.4375H11.25C11.0014 11.4375 10.7629 11.3387 10.5871 11.1629C10.4113 10.9871 10.3125 10.7486 10.3125 10.5C10.3125 10.2514 10.4113 10.0129 10.5871 9.83709C10.7629 9.66127 11.0014 9.5625 11.25 9.5625V9.5625Z" fill="#FB8965"/>
</svg>
