<svg width="16" height="16" viewBox="0 0 16 16" fill="none" xmlns="http://www.w3.org/2000/svg">
<path d="M11.6738 0.00332907L9.59506 0C7.25967 0 5.75044 1.54552 5.75044 3.93762V5.75313H3.66036C3.47975 5.75313 3.3335 5.89927 3.3335 6.07954V8.71001C3.3335 8.89028 3.47992 9.03625 3.66036 9.03625H5.75044V15.6738C5.75044 15.854 5.89669 16 6.0773 16H8.80426C8.98487 16 9.13112 15.8539 9.13112 15.6738V9.03625H11.5749C11.7555 9.03625 11.9018 8.89028 11.9018 8.71001L11.9028 6.07954C11.9028 5.99299 11.8683 5.91009 11.807 5.84884C11.7458 5.78758 11.6625 5.75313 11.5757 5.75313H9.13112V4.2141C9.13112 3.47438 9.30772 3.09886 10.2731 3.09886L11.6735 3.09836C11.8539 3.09836 12.0002 2.95222 12.0002 2.77211V0.329578C12.0002 0.149642 11.8541 0.00366197 11.6738 0.00332907Z" fill="#25282B"/>
</svg>
