<svg width="24" height="24" viewBox="0 0 24 24" fill="none" xmlns="http://www.w3.org/2000/svg">
<path d="M24 11.0994C23.9988 10.3261 23.7572 9.57233 23.3086 8.94252C22.86 8.3127 22.2268 7.83806 21.4965 7.58435V3.69869C21.4972 3.27932 21.343 2.87447 21.0636 2.56188C20.7841 2.24929 20.3991 2.05101 19.9824 2.0051C19.5657 1.95919 19.1467 2.0689 18.8059 2.31316C18.4652 2.55741 18.2266 2.91899 18.1361 3.32847L6.30402 5.94472H5.88487C5.35305 5.94546 4.83263 6.09891 4.38542 6.38683C3.93822 6.67474 3.58302 7.08503 3.36204 7.56894C2.49714 7.67015 1.69953 8.08567 1.12076 8.73655C0.541988 9.38742 0.22238 10.2283 0.222656 11.0994C0.223974 11.9706 0.544029 12.8111 1.1224 13.4623C1.70078 14.1135 2.49745 14.5304 3.36204 14.6342C3.53879 15.02 3.80133 15.3602 4.1296 15.6289C4.45787 15.8976 4.84319 16.0877 5.25613 16.1846L6.72497 21.439C6.87531 21.9765 7.22403 22.437 7.70064 22.7272C8.17726 23.0174 8.74624 23.1159 9.29262 23.0026C9.83899 22.8893 10.322 22.5728 10.6441 22.117C10.9661 21.6611 11.1032 21.1 11.0276 20.547L10.5662 17.2014L18.1347 18.874C18.2252 19.2835 18.4637 19.645 18.8045 19.8893C19.1453 20.1336 19.5642 20.2433 19.9809 20.1974C20.3976 20.1515 20.7827 19.9532 21.0621 19.6406C21.3416 19.328 21.4958 18.9231 21.4951 18.5038V14.6181C22.226 14.3642 22.8598 13.889 23.3086 13.2585C23.7575 12.628 23.9991 11.8735 24 11.0994V11.0994ZM7.00405 15.1292V7.07472L18.0931 4.62441V17.5798L7.00405 15.1292ZM1.47655 11.0994C1.47577 10.7963 1.53516 10.496 1.65126 10.2159C1.76737 9.93587 1.93789 9.68167 2.15293 9.46805C2.41888 9.2009 2.7473 9.00441 3.1084 8.89641V13.3046C2.63668 13.1595 2.22378 12.8672 1.93014 12.4704C1.6365 12.0736 1.47755 11.5931 1.47655 11.0994ZM4.36229 13.4817V8.7208C4.36272 8.34027 4.50532 7.97363 4.76211 7.69288C5.01889 7.41213 5.3713 7.23754 5.75016 7.20338V14.9987C5.37134 14.9647 5.01892 14.7901 4.76213 14.5094C4.50534 14.2287 4.36272 13.8622 4.36229 13.4817ZM9.78697 20.7183C9.8192 20.9563 9.75993 21.1978 9.62114 21.3938C9.48235 21.5899 9.27438 21.726 9.0392 21.7746C8.80402 21.8232 8.55916 21.7808 8.35404 21.6558C8.14893 21.5309 7.99884 21.3327 7.93408 21.1014L6.59672 16.3237L9.26213 16.9129L9.78697 20.7183ZM19.7948 18.9518C19.676 18.9518 19.5621 18.9046 19.4782 18.8205C19.3942 18.7365 19.347 18.6226 19.347 18.5038V3.69869C19.347 3.57987 19.3942 3.46592 19.4782 3.38191C19.5621 3.2979 19.676 3.2507 19.7948 3.2507C19.9136 3.2507 20.0275 3.2979 20.1115 3.38191C20.1954 3.46592 20.2426 3.57987 20.2426 3.69869V18.5038C20.2425 18.6226 20.1953 18.7365 20.1114 18.8204C20.0274 18.9044 19.9135 18.9517 19.7948 18.9518ZM21.4965 13.2455V8.95662C21.8759 9.17148 22.1914 9.4832 22.411 9.85994C22.6305 10.2367 22.7462 10.665 22.7462 11.1011C22.7462 11.5371 22.6305 11.9654 22.411 12.3422C22.1914 12.7189 21.8759 13.0306 21.4965 13.2455V13.2455Z" fill="#828282"/>
<path d="M12.2146 7.48413C12.1969 7.40365 12.1636 7.32744 12.1164 7.25987C12.0693 7.19229 12.0093 7.13469 11.9399 7.09034C11.8705 7.046 11.793 7.01579 11.7119 7.00145C11.6308 6.9871 11.5477 6.98891 11.4672 7.00675L9.20237 7.50599C9.03999 7.54182 8.89849 7.64072 8.80899 7.78092C8.7195 7.92113 8.68935 8.09115 8.72517 8.25359C8.76099 8.41603 8.85985 8.55759 9 8.64711C9.14015 8.73664 9.31011 8.7668 9.47249 8.73097L11.7374 8.22922C11.8992 8.19337 12.0403 8.09485 12.1297 7.95522C12.2191 7.81558 12.2496 7.6462 12.2146 7.48413V7.48413Z" fill="#FB8965"/>
</svg>
