<svg width="24" height="24" viewBox="0 0 24 24" fill="none" xmlns="http://www.w3.org/2000/svg">
<path d="M18.625 24H4.375C3.0659 24 2 22.878 2 21.5V2.5C2 1.122 3.0659 0 4.375 0H18.625C19.9341 0 21 1.122 21 2.5V21.5C21 22.878 19.9341 24 18.625 24ZM4.375 1C3.58935 1 2.95 1.673 2.95 2.5V21.5C2.95 22.327 3.58935 23 4.375 23H18.625C19.4106 23 20.05 22.327 20.05 21.5V2.5C20.05 1.673 19.4106 1 18.625 1H4.375Z" fill="#828282"/>
<path d="M18.3333 9H15.6667C15.2987 9 15 8.776 15 8.5C15 8.224 15.2987 8 15.6667 8H18.3333C18.7013 8 19 8.224 19 8.5C19 8.776 18.7013 9 18.3333 9Z" fill="#828282"/>
<path d="M18.3333 6H15.6667C15.2987 6 15 5.776 15 5.5C15 5.224 15.2987 5 15.6667 5H18.3333C18.7013 5 19 5.224 19 5.5C19 5.776 18.7013 6 18.3333 6Z" fill="#828282"/>
<path d="M18.3333 12H15.6667C15.2987 12 15 11.776 15 11.5C15 11.224 15.2987 11 15.6667 11H18.3333C18.7013 11 19 11.224 19 11.5C19 11.776 18.7013 12 18.3333 12Z" fill="#828282"/>
<path d="M18.3333 15H15.6667C15.2987 15 15 14.776 15 14.5C15 14.224 15.2987 14 15.6667 14H18.3333C18.7013 14 19 14.224 19 14.5C19 14.776 18.7013 15 18.3333 15Z" fill="#828282"/>
<path d="M18.4643 19H4.53571C4.24 19 4 18.776 4 18.5C4 18.224 4.24 18 4.53571 18H18.4643C18.76 18 19 18.224 19 18.5C19 18.776 18.76 19 18.4643 19Z" fill="#828282"/>
<path d="M9 15C6.243 15 4 12.757 4 10C4 7.243 6.243 5 9 5C11.757 5 14 7.243 14 10C14 12.757 11.757 15 9 15ZM9 6C6.794 6 5 7.794 5 10C5 12.206 6.794 14 9 14C11.206 14 13 12.206 13 10C13 7.794 11.206 6 9 6Z" fill="#FB8965"/>
<path d="M6.47845 14C6.35603 14 6.23361 13.9492 6.13988 13.8487C5.95337 13.6465 5.95337 13.3179 6.13988 13.1158L9.04358 9.96856V5.51831C9.04358 5.2322 9.25782 5 9.52179 5C9.78576 5 10 5.2322 10 5.51831V10.1831C10 10.321 9.94931 10.4527 9.86036 10.5501L6.81702 13.8487C6.72329 13.9492 6.60087 14 6.47845 14V14Z" fill="#FB8965"/>
</svg>
